<?xml version="1.0" encoding="UTF-8" standalone="no"?>
<!DOCTYPE svg PUBLIC "-//W3C//DTD SVG 1.1//EN"
 "http://www.w3.org/Graphics/SVG/1.1/DTD/svg11.dtd">
<!-- Generated by graphviz version 2.43.0 (0)
 -->
<!-- Title: Tree Pages: 1 -->
<svg width="621pt" height="433pt"
 viewBox="0.00 0.00 621.00 433.00" xmlns="http://www.w3.org/2000/svg" xmlns:xlink="http://www.w3.org/1999/xlink">
<g id="graph0" class="graph" transform="scale(1 1) rotate(0) translate(4 429)">
<title>Tree</title>
<polygon fill="white" stroke="transparent" points="-4,4 -4,-429 617,-429 617,4 -4,4"/>
<!-- 0 -->
<g id="node1" class="node">
<title>0</title>
<path fill="#fdfffd" stroke="black" d="M293.5,-425C293.5,-425 165.5,-425 165.5,-425 159.5,-425 153.5,-419 153.5,-413 153.5,-413 153.5,-354 153.5,-354 153.5,-348 159.5,-342 165.5,-342 165.5,-342 293.5,-342 293.5,-342 299.5,-342 305.5,-348 305.5,-354 305.5,-354 305.5,-413 305.5,-413 305.5,-419 299.5,-425 293.5,-425"/>
<text text-anchor="start" x="161.5" y="-409.8" font-family="Helvetica,sans-Serif" font-size="14.00">PetalLengthCm ≤ 2.45</text>
<text text-anchor="start" x="194" y="-394.8" font-family="Helvetica,sans-Serif" font-size="14.00">gini = 0.667</text>
<text text-anchor="start" x="184.5" y="-379.8" font-family="Helvetica,sans-Serif" font-size="14.00">samples = 120</text>
<text text-anchor="start" x="171.5" y="-364.8" font-family="Helvetica,sans-Serif" font-size="14.00">value = [40, 41, 39]</text>
<text text-anchor="start" x="166" y="-349.8" font-family="Helvetica,sans-Serif" font-size="14.00">class = Iris&#45;versicolor</text>
</g>
<!-- 1 -->
<g id="node2" class="node">
<title>1</title>
<path fill="#e58139" stroke="black" d="M202,-298.5C202,-298.5 101,-298.5 101,-298.5 95,-298.5 89,-292.5 89,-286.5 89,-286.5 89,-242.5 89,-242.5 89,-236.5 95,-230.5 101,-230.5 101,-230.5 202,-230.5 202,-230.5 208,-230.5 214,-236.5 214,-242.5 214,-242.5 214,-286.5 214,-286.5 214,-292.5 208,-298.5 202,-298.5"/>
<text text-anchor="start" x="123.5" y="-283.3" font-family="Helvetica,sans-Serif" font-size="14.00">gini = 0.0</text>
<text text-anchor="start" x="110.5" y="-268.3" font-family="Helvetica,sans-Serif" font-size="14.00">samples = 40</text>
<text text-anchor="start" x="101" y="-253.3" font-family="Helvetica,sans-Serif" font-size="14.00">value = [40, 0, 0]</text>
<text text-anchor="start" x="97" y="-238.3" font-family="Helvetica,sans-Serif" font-size="14.00">class = Iris&#45;setosa</text>
</g>
<!-- 0&#45;&gt;1 -->
<g id="edge1" class="edge">
<title>0&#45;&gt;1</title>
<path fill="none" stroke="black" d="M202.44,-341.91C194.93,-330.65 186.78,-318.42 179.24,-307.11"/>
<polygon fill="black" stroke="black" points="182.07,-305.05 173.61,-298.67 176.25,-308.93 182.07,-305.05"/>
<text text-anchor="middle" x="168.71" y="-319.48" font-family="Helvetica,sans-Serif" font-size="14.00">True</text>
</g>
<!-- 2 -->
<g id="node3" class="node">
<title>2</title>
<path fill="#f5fef9" stroke="black" d="M372.5,-306C372.5,-306 244.5,-306 244.5,-306 238.5,-306 232.5,-300 232.5,-294 232.5,-294 232.5,-235 232.5,-235 232.5,-229 238.5,-223 244.5,-223 244.5,-223 372.5,-223 372.5,-223 378.5,-223 384.5,-229 384.5,-235 384.5,-235 384.5,-294 384.5,-294 384.5,-300 378.5,-306 372.5,-306"/>
<text text-anchor="start" x="240.5" y="-290.8" font-family="Helvetica,sans-Serif" font-size="14.00">PetalLengthCm ≤ 4.75</text>
<text text-anchor="start" x="280.5" y="-275.8" font-family="Helvetica,sans-Serif" font-size="14.00">gini = 0.5</text>
<text text-anchor="start" x="267.5" y="-260.8" font-family="Helvetica,sans-Serif" font-size="14.00">samples = 80</text>
<text text-anchor="start" x="254" y="-245.8" font-family="Helvetica,sans-Serif" font-size="14.00">value = [0, 41, 39]</text>
<text text-anchor="start" x="245" y="-230.8" font-family="Helvetica,sans-Serif" font-size="14.00">class = Iris&#45;versicolor</text>
</g>
<!-- 0&#45;&gt;2 -->
<g id="edge2" class="edge">
<title>0&#45;&gt;2</title>
<path fill="none" stroke="black" d="M256.91,-341.91C262.91,-333.01 269.33,-323.51 275.53,-314.33"/>
<polygon fill="black" stroke="black" points="278.44,-316.27 281.14,-306.02 272.64,-312.35 278.44,-316.27"/>
<text text-anchor="middle" x="285.9" y="-326.86" font-family="Helvetica,sans-Serif" font-size="14.00">False</text>
</g>
<!-- 3 -->
<g id="node4" class="node">
<title>3</title>
<path fill="#3ee684" stroke="black" d="M287.5,-187C287.5,-187 165.5,-187 165.5,-187 159.5,-187 153.5,-181 153.5,-175 153.5,-175 153.5,-116 153.5,-116 153.5,-110 159.5,-104 165.5,-104 165.5,-104 287.5,-104 287.5,-104 293.5,-104 299.5,-110 299.5,-116 299.5,-116 299.5,-175 299.5,-175 299.5,-181 293.5,-187 287.5,-187"/>
<text text-anchor="start" x="161.5" y="-171.8" font-family="Helvetica,sans-Serif" font-size="14.00">PetalWidthCm ≤ 1.65</text>
<text text-anchor="start" x="191" y="-156.8" font-family="Helvetica,sans-Serif" font-size="14.00">gini = 0.053</text>
<text text-anchor="start" x="185.5" y="-141.8" font-family="Helvetica,sans-Serif" font-size="14.00">samples = 37</text>
<text text-anchor="start" x="176" y="-126.8" font-family="Helvetica,sans-Serif" font-size="14.00">value = [0, 36, 1]</text>
<text text-anchor="start" x="163" y="-111.8" font-family="Helvetica,sans-Serif" font-size="14.00">class = Iris&#45;versicolor</text>
</g>
<!-- 2&#45;&gt;3 -->
<g id="edge3" class="edge">
<title>2&#45;&gt;3</title>
<path fill="none" stroke="black" d="M280.05,-222.91C273.82,-214.01 267.16,-204.51 260.72,-195.33"/>
<polygon fill="black" stroke="black" points="263.5,-193.2 254.9,-187.02 257.77,-197.22 263.5,-193.2"/>
</g>
<!-- 6 -->
<g id="node7" class="node">
<title>6</title>
<path fill="#9253e8" stroke="black" d="M451.5,-187C451.5,-187 329.5,-187 329.5,-187 323.5,-187 317.5,-181 317.5,-175 317.5,-175 317.5,-116 317.5,-116 317.5,-110 323.5,-104 329.5,-104 329.5,-104 451.5,-104 451.5,-104 457.5,-104 463.5,-110 463.5,-116 463.5,-116 463.5,-175 463.5,-175 463.5,-181 457.5,-187 451.5,-187"/>
<text text-anchor="start" x="325.5" y="-171.8" font-family="Helvetica,sans-Serif" font-size="14.00">PetalWidthCm ≤ 1.75</text>
<text text-anchor="start" x="355" y="-156.8" font-family="Helvetica,sans-Serif" font-size="14.00">gini = 0.206</text>
<text text-anchor="start" x="349.5" y="-141.8" font-family="Helvetica,sans-Serif" font-size="14.00">samples = 43</text>
<text text-anchor="start" x="340" y="-126.8" font-family="Helvetica,sans-Serif" font-size="14.00">value = [0, 5, 38]</text>
<text text-anchor="start" x="331" y="-111.8" font-family="Helvetica,sans-Serif" font-size="14.00">class = Iris&#45;virginica</text>
</g>
<!-- 2&#45;&gt;6 -->
<g id="edge6" class="edge">
<title>2&#45;&gt;6</title>
<path fill="none" stroke="black" d="M336.95,-222.91C343.18,-214.01 349.84,-204.51 356.28,-195.33"/>
<polygon fill="black" stroke="black" points="359.23,-197.22 362.1,-187.02 353.5,-193.2 359.23,-197.22"/>
</g>
<!-- 4 -->
<g id="node5" class="node">
<title>4</title>
<path fill="#39e581" stroke="black" d="M131,-68C131,-68 12,-68 12,-68 6,-68 0,-62 0,-56 0,-56 0,-12 0,-12 0,-6 6,0 12,0 12,0 131,0 131,0 137,0 143,-6 143,-12 143,-12 143,-56 143,-56 143,-62 137,-68 131,-68"/>
<text text-anchor="start" x="43.5" y="-52.8" font-family="Helvetica,sans-Serif" font-size="14.00">gini = 0.0</text>
<text text-anchor="start" x="30.5" y="-37.8" font-family="Helvetica,sans-Serif" font-size="14.00">samples = 36</text>
<text text-anchor="start" x="21" y="-22.8" font-family="Helvetica,sans-Serif" font-size="14.00">value = [0, 36, 0]</text>
<text text-anchor="start" x="8" y="-7.8" font-family="Helvetica,sans-Serif" font-size="14.00">class = Iris&#45;versicolor</text>
</g>
<!-- 3&#45;&gt;4 -->
<g id="edge4" class="edge">
<title>3&#45;&gt;4</title>
<path fill="none" stroke="black" d="M168.78,-103.73C155.1,-94.06 140.53,-83.77 126.95,-74.17"/>
<polygon fill="black" stroke="black" points="128.82,-71.21 118.64,-68.3 124.78,-76.93 128.82,-71.21"/>
</g>
<!-- 5 -->
<g id="node6" class="node">
<title>5</title>
<path fill="#8139e5" stroke="black" d="M284,-68C284,-68 173,-68 173,-68 167,-68 161,-62 161,-56 161,-56 161,-12 161,-12 161,-6 167,0 173,0 173,0 284,0 284,0 290,0 296,-6 296,-12 296,-12 296,-56 296,-56 296,-62 290,-68 284,-68"/>
<text text-anchor="start" x="200.5" y="-52.8" font-family="Helvetica,sans-Serif" font-size="14.00">gini = 0.0</text>
<text text-anchor="start" x="191" y="-37.8" font-family="Helvetica,sans-Serif" font-size="14.00">samples = 1</text>
<text text-anchor="start" x="181.5" y="-22.8" font-family="Helvetica,sans-Serif" font-size="14.00">value = [0, 0, 1]</text>
<text text-anchor="start" x="169" y="-7.8" font-family="Helvetica,sans-Serif" font-size="14.00">class = Iris&#45;virginica</text>
</g>
<!-- 3&#45;&gt;5 -->
<g id="edge5" class="edge">
<title>3&#45;&gt;5</title>
<path fill="none" stroke="black" d="M227.24,-103.73C227.39,-95.52 227.55,-86.86 227.7,-78.56"/>
<polygon fill="black" stroke="black" points="231.21,-78.36 227.89,-68.3 224.21,-78.23 231.21,-78.36"/>
</g>
<!-- 7 -->
<g id="node8" class="node">
<title>7</title>
<path fill="#ffffff" stroke="black" d="M448,-68C448,-68 329,-68 329,-68 323,-68 317,-62 317,-56 317,-56 317,-12 317,-12 317,-6 323,0 329,0 329,0 448,0 448,0 454,0 460,-6 460,-12 460,-12 460,-56 460,-56 460,-62 454,-68 448,-68"/>
<text text-anchor="start" x="360.5" y="-52.8" font-family="Helvetica,sans-Serif" font-size="14.00">gini = 0.5</text>
<text text-anchor="start" x="351" y="-37.8" font-family="Helvetica,sans-Serif" font-size="14.00">samples = 8</text>
<text text-anchor="start" x="341.5" y="-22.8" font-family="Helvetica,sans-Serif" font-size="14.00">value = [0, 4, 4]</text>
<text text-anchor="start" x="325" y="-7.8" font-family="Helvetica,sans-Serif" font-size="14.00">class = Iris&#45;versicolor</text>
</g>
<!-- 6&#45;&gt;7 -->
<g id="edge7" class="edge">
<title>6&#45;&gt;7</title>
<path fill="none" stroke="black" d="M389.76,-103.73C389.61,-95.52 389.45,-86.86 389.3,-78.56"/>
<polygon fill="black" stroke="black" points="392.79,-78.23 389.11,-68.3 385.79,-78.36 392.79,-78.23"/>
</g>
<!-- 8 -->
<g id="node9" class="node">
<title>8</title>
<path fill="#853fe6" stroke="black" d="M601,-68C601,-68 490,-68 490,-68 484,-68 478,-62 478,-56 478,-56 478,-12 478,-12 478,-6 484,0 490,0 490,0 601,0 601,0 607,0 613,-6 613,-12 613,-12 613,-56 613,-56 613,-62 607,-68 601,-68"/>
<text text-anchor="start" x="510" y="-52.8" font-family="Helvetica,sans-Serif" font-size="14.00">gini = 0.056</text>
<text text-anchor="start" x="504.5" y="-37.8" font-family="Helvetica,sans-Serif" font-size="14.00">samples = 35</text>
<text text-anchor="start" x="495" y="-22.8" font-family="Helvetica,sans-Serif" font-size="14.00">value = [0, 1, 34]</text>
<text text-anchor="start" x="486" y="-7.8" font-family="Helvetica,sans-Serif" font-size="14.00">class = Iris&#45;virginica</text>
</g>
<!-- 6&#45;&gt;8 -->
<g id="edge8" class="edge">
<title>6&#45;&gt;8</title>
<path fill="none" stroke="black" d="M448.22,-103.73C461.9,-94.06 476.47,-83.77 490.05,-74.17"/>
<polygon fill="black" stroke="black" points="492.22,-76.93 498.36,-68.3 488.18,-71.21 492.22,-76.93"/>
</g>
</g>
</svg>